<!--?xml version="1.0" encoding="utf-8"?-->
<!-- Generator: Adobe Illustrator 22.1.0, SVG Export Plug-In . SVG Version: 6.00 Build 0)  -->
<svg version="1.1" id="_x32_" xmlns="http://www.w3.org/2000/svg" xmlns:xlink="http://www.w3.org/1999/xlink" x="0px" y="0px" viewBox="0 0 687.548 800" style="enable-background:new 0 0 687.548 800;" xml:space="preserve">
<style type="text/css">
	.st0{fill:#040000;}
</style>
<g>
	<path class="st0" d="M531.617,44.632c0,23.541-19.085,42.62-42.632,42.62c-23.535,0-42.62-19.079-42.62-42.62
		C446.365,21.085,465.45,2,488.985,2C512.532,2,531.617,21.085,531.617,44.632z"></path>
	<path class="st0" d="M682.946,269.06c-2.173,1.653-9.758,1.392-9.758,1.392s0,0,5.888-2.659c5.874-2.65,7.844-7.314,6.191-9.487
		c-1.664-2.151-3.815-0.498-7.585-0.261c3.43-5.524-1.143-5.965-4.064-4.279c-2.92,1.71-11.331,8.524-19.006,10.324
		c-8.943,2.106-36.813-1.709-49.537,0.634c-11.977,2.207-27.95,0.758-49.854-6.045c-21.905-6.803-43.809-3.77-53.613-4.539
		c-9.826-0.747-43.833-13.585-43.833-15.849c0-2.264-1.506-12.837-1.506-12.837s-4.528-0.77-17.364-2.276
		c-12.837-1.505-21.904-11.331-37.018-15.858c-15.112-4.529-26.432,3.01-36.994,3.01c-10.583,0-23.184,3.532-27.451,4.302
		c-4.279,0.748-4.279,0.238-7.8-1.516c-3.532-1.767-11.082,4.777-12.599,5.784c-1.505,1.007-5.026,1.257-8.309-0.261
		c-3.259-1.506-10.312-5.784-6.283-10.573c4.019-4.777,6.283-11.066,6.792-17.62c0.498-6.544-6.045-9.056-8.309-12.079
		c-2.265-3.022-6.283-10.324-7.314-14.598c-0.996-4.29-6.034-6.804-6.034-6.804c2.773-10.579-3.023-10.074-6.045-9.322
		c-3.022,0.758-8.547-1.257-9.305-2.264c-0.759-1.001-1.517-3.022-4.03-3.526c-2.513-0.498-10.822-4.019-10.822-4.019
		s0.51-1.013-0.249-5.79c-0.509,1.755-0.271,3.52-4.788,5.79c3.01-3.781,1.494-11.331,1.494-11.331s-2.253,5.286-8.299,9.062
		c2.265-6.045,0.759-3.776,0.759-12.085c-0.759,5.288-10.573,12.085-16.618,15.108c-6.034,3.01-27.95,21.146-29.466,41.534
		c-1.506,20.398,8.32,39.286,15.87,45.331c7.562,6.034,28.697,7.551,31.72,8.309c3.022,0.748,9.056,9.804,8.308,15.101
		c-0.758,5.276-9.813,12.839-13.595,15.102c-3.781,2.264-9.815-0.748-15.101,0.758c-5.287,1.506-13.596,7.551-18.135,6.045
		c-4.528-1.506-9.815,1.506-12.837,3.012c-3.023,1.504-9.067,2.264-12.079,0.758c-3.022-1.506-15.86,1.506-19.64-0.758
		c-3.77-2.253-3.77,4.539-3.77,4.539c-12.848-6.045-35.512-5.287-40.799-4.539c-5.286,0.758-5.286-3.012-5.286-3.012
		s5.286-23.422,6.034-30.961c0.758-7.562,15.621-34.968,18.203-35.874c2.558-0.917,15.927-1.46,20.886-5.667
		c4.935-4.217,8.614-12.638,15.215-14.099c6.588-1.461,7.143-9.883-0.182-8.61c-7.335,1.274-13.199,6.034-16.663,7.494
		c-3.498,1.471-8.252-1.284-7.335-4.942c0.917-3.667,7.698-18.316,9.724-20.144c2.014-1.84,6.237-12.458,8.06-16.674
		c1.846-4.206,2.57-10.25-1.268-10.431c-3.848-0.198-6.407,3.837-7.324,7.505c-0.917,3.662-4.041,9.883-6.43,13.176
		c-2.377,3.3-6.045,5.497-6.045,5.497l4.222-19.975c0,0,6.238-12.441,3.124-15.56c-3.102-3.124-7.143-2.57-9.713,4.579
		c-2.57,7.132-1.278,8.236-2.943,11.717c-1.641,3.486-2.57,16.482-6.418,16.295c-3.838-0.181-6.045-3.848-4.392-10.442
		c1.653-6.595,2.207-15.022,1.856-19.777c-0.374-4.766-6.407-5.502-8.795,4.025c-2.389,9.526-1.676,25.277-4.608,24.542
		c-2.931-0.736-6.214-6.237-6.033-10.086c0.18-3.838-2.027-13.313-4.461-12.079c-5.751,2.909-1.392,7.505-2.128,13.55
		c-0.735,6.039,0.532,10.25,0.34,17.213c-0.18,6.962,8.05,19.685,1.824,26.93c-2.197,2.564-15.894,26.897-24.203,40.493
		c-8.309,13.595-21.894,46.074-21.894,50.601s0,9.068,6.045,15.112c6.034,6.045,46.82,35.501,92.135,37.764
		c0,0-0.747,11.332,2.276,10.573c7.347-1.845,22.652-5.274,27.18-3.77c4.529,1.506,12.078-0.758,14.354-0.758
		c2.264,0,8.309,11.321,15.86,13.596c7.562,2.264,15.859,9.814,20.388,15.859c4.539,6.045,18.123,23.411,15.858,27.191
		c-2.264,3.781,2.264,4.539,6.045,4.539c3.782,0,3.023,8.299,1.518,11.321c-1.518,3.022,2.264,5.287,6.033,9.067
		c3.782,3.77,2.276,11.332-2.264,21.894c-4.529,10.585-11.332,11.342-7.551,17.376c3.782,6.045,9.815,12.849,9.815,12.849
		s0.758,8.298,0,14.343c-0.748,6.045,0,7.563-3.769,11.332c-3.782,3.78-0.758,7.561-1.518,11.331
		c-0.746,3.77,0.759,12.837-2.264,15.86c-3.022,3.022-5.286,6.045-9.825,11.331c-4.518,5.287-1.494,12.837-2.253,17.376
		c-0.758,4.529-3.78,3.77-9.825,8.309c-6.034,4.529-3.023,8.309-7.54,13.585c-4.539,5.287-2.264,11.331-5.287,18.136
		c-3.022,6.803-8.309,12.837-8.309,18.882c0,0-23.422,44.567-26.444,49.095c-3.023,4.539-4.539,4.539-9.815-2.264
		c-5.287-6.804-20.388-11.331-36.258-11.331c-15.871,0-44.557,12.837-48.338,10.573c-3.77-2.264,0,0-0.747-3.023
		c-0.758-3.022,1.506-7.55-0.758-18.123c-2.265-10.574-21.157-18.136-32.478-13.596c-11.331,4.528-17.377,25.674-18.894,29.455
		c-1.506,3.781-5.286,5.287-19.64,12.09c-14.343,6.792-21.146,28.697-24.916,46.82c-3.781,18.136,10.573,24.181,18.882,23.423
		c8.298-0.759,29.455-19.642,35.5-23.423c6.045-3.78,32.477-4.528,35.501-5.285c3.022-0.758,9.825-2.264,16.606-2.264
		c6.804,0,55.152,7.55,70.253,12.079c15.102,4.539,43.81,3.022,45.315,0.758c1.517-2.264,3.782-9.067,20.388-15.101
		c16.618-6.045,39.281-63.439,39.281-63.439c8.309,5.276,30.213,15.101,30.213,8.297c0-6.803,13.585-23.41,17.366-29.455
		c3.781-6.045,6.803-14.343,10.573-15.101c3.782-0.758,3.782,6.034,5.298,8.297c1.506,2.264,4.528,11.331,16.618,21.158
		c12.079,9.815,14.342,9.815,14.342,9.815s-15.848,5.286-27.191,15.859c-11.331,10.585-15.86,23.411-23.421,30.215
		c-7.551,6.803-13.585,4.539-16.607,3.781c-3.023-0.759-4.539-1.517-13.596-8.309c-9.056-6.804-21.904-2.275-27.191,7.55
		c-5.285,9.826,0,33.994,4.529,40.787c4.539,6.791,0,0,2.264,33.994c2.275,33.983,12.848,34.742,32.477,30.961
		c19.641-3.77,10.572-37.006,11.332-44.568c0.747-7.551,16.618-20.388,23.421-24.915c6.792-4.539,6.792-11.332,17.376-12.849
		c10.562-1.506,38.512-14.343,43.04-17.366c4.539-3.022,22.674-4.528,32.477-14.354c9.826-9.825,6.045-24.928,5.299-27.95
		c-0.759-3.022,0-3.022,2.264-9.815c2.264-6.791,5.286-67.231,8.298-72.506c3.022-5.286-0.758-12.837-3.77-16.618
		c-3.022-3.78-4.528-19.64-4.528-21.904c0-2.264,0.758-12.091-3.781-15.861c-4.528-3.78-8.297-33.236-9.815-37.775
		c-1.505-4.528,0-3.77,0-9.803c0-6.044-9.814-1.516-7.55-7.561c2.264-6.045-3.781-30.961-3.781-30.961s1.518-5.298,2.264-9.827
		c0.758-4.528-0.746-9.067-3.022-13.595c-2.264-4.528,1.516-8.309-1.506-15.101c-3.023-6.804,1.506-22.663,1.506-26.433
		c0-3.781,3.022-14.366,3.78-18.893c0.759-4.528-9.067-11.321-10.573-17.365c-1.516-6.045-4.539-20.399-3.022-26.433
		c1.506-6.045,6.792-25.685,6.792-25.685s3.023-3.035,6.045-2.275c3.023,0.758,7.563-3.769,7.563-3.769s7.539,3.01,18.871,10.573
		c11.331,7.55,50.986,12.463,50.986,12.463c8.682,6.43,31.731,3.781,52.866,0.758c21.158-3.022,46.753-15.124,51.665-9.395
		c4.913,5.739,8.66,5.117,13.165,10.493c4.518,5.401,8.876,13.109,13.891,9.701c6.169-4.188-4.539-11.433-1.743-15.022
		c1.766-2.274,11.105-5.648,15.509-5.942c5.286-0.329,13.844-2.401,16.483-2.582c2.648-0.17,9.464,0.136,13.968-0.543
		c4.506-0.656,5.468-3.373,3.147-3.974c-2.31-0.623-10.652-0.826-10.652-0.826s2.253-0.522,7.844-1.653
		C687.815,274.041,685.109,267.408,682.946,269.06z"></path>
</g>
</svg>
