<!--?xml version="1.0" encoding="utf-8"?-->
<!-- Generator: Adobe Illustrator 22.1.0, SVG Export Plug-In . SVG Version: 6.00 Build 0)  -->
<svg version="1.1" id="_x35_" xmlns="http://www.w3.org/2000/svg" xmlns:xlink="http://www.w3.org/1999/xlink" x="0px" y="0px" viewBox="0 0 374.107 800" style="width: 234px;" xml:space="preserve">
<style type="text/css">
	.st0{fill:#040000;}
</style>
<g>
	<path class="st0" d="M371.586,173.825c-1.471-0.484-8.077,0.25-9.547-0.484c-1.467-0.738-0.734-0.98,5.142-3.429
		c5.872-2.451,6.851-6.364,5.385-6.856c-1.471-0.483-9.056,3.184-11.015,4.164c-1.959,0.983-2.696,0.983-2.938-0.73
		c-0.245-1.717,0.98-1.959,1.96-3.183c0.979-1.226,2.937-2.451,6.118-5.139c3.18-2.7,3.425-4.655,1.471-5.388
		c-1.959-0.733-5.385,1.717-5.385,1.717l-5.876,3.913c0,0,0,0,1.467-3.913c1.467-3.917-0.733-5.393-2.692-4.409
		c-1.959,0.975-3.672,5.38-3.672,4.409c0-0.983,0.733-7.589,0.733-7.589s0.734-2.209,0.492-6.605
		c-0.246-4.409-5.142-1.717-5.142,0.241c0,1.955-4.893,14.194-5.872,19.583c-0.979,5.38-7.343,16.15-9.301,17.625
		c-1.959,1.462-36.228,13.215-50.91,14.682c-14.69,1.463-22.033,8.322-24.479,11.748c-2.447,3.433-10.769,1.467-19.092,2.934
		c-8.322,1.467-21.049,0-34.265,0.499c-13.218,0.484-21.541,7.335-24.967,4.401c-3.429-2.934-0.488-5.884,3.917-9.793
		c4.405-3.917-0.978-4.893-0.491-6.859c0.491-1.951-1.959-2.93-2.935-4.397c-0.98-1.472,0-3.43,0-5.389
		c0-1.954-3.429-4.405-3.921-6.851c-0.488-2.45,3.921-5.384,2.941-7.339c-0.978-1.959-11.26-1.959-13.218-3.433
		c-1.959-1.464-4.405-2.93-4.405-4.405c0-1.468-0.98-3.422-3.917-5.873c-11.261-16.641-42.419-14.557-54.34,1.467
		c-7.243,9.741-7.734,19.595-6.376,27.087c-1.257,0.943-2.757,2.249-3.639,3.611c-2.607-0.394-6.972,0.085-11.849,5.368
		c-1.382,1.492-2.459,4.522-3.438,8.456c-6.553,0.234-17.044,1.37-31.484-1.443c-10.958-2.136-43.567,0.984-45.033,14.194
		c-1.472,13.219,18.604,25.455,43.079,22.522c4.518-0.548,13.631,0.257,22.219,1.29c-5.578,4.368-11.434,7.496-16.673,8.504
		c6.814,0.7,12.514-0.475,17.305-2.845c-1.076,2.306-2.277,4.393-3.635,6.215c-1.274,0.37-2.575,0.766-3.877,1.201
		c1.015,0.032,1.983,0.032,2.922,0c-3.268,3.853-7.383,6.142-12.715,5.876c0,0,10.547,1.491,18.422-6.505
		c0.818-0.169,1.593-0.371,2.33-0.596c-1.326,3.965-3.974,7.512-7.045,9.044c6.062-2.193,9.327-4.417,11.373-10.931
		c3.378-1.983,5.606-4.771,7.029-7.899c1.886,0.274,3.284,0.475,3.953,0.565c3.913,0.484,14.199,8.81,15.666,11.253
		c1.467,2.449,2.938,11.752,3.425,14.202c0.492,2.442,21.05,39.649,21.05,39.649s20.07,43.575,20.562,46.992
		c0.488,3.433,2.446,8.326,2.446,10.285c0,1.959-4.897,14.686-8.81,45.042c-3.917,30.347,11.257,52.377,14.686,52.377
		c3.425,0,4.893,19.578,4.893,21.054c0,1.467-16.641,6.36-20.071,6.36c-3.425,0-13.707,5.385-16.641,9.302
		c-2.942,3.909,11.257,19.579,14.194,26.922c2.939,7.343,21.538,25.455,21.538,27.906c0,2.45-2.938,19.087-2.938,20.554
		c0,1.475-2.934,12.244-4.893,16.653c-1.959,4.401-11.261,16.152-15.666,24.471c-13.707,17.136-8.814,77.348-10.277,77.348
		c-1.47,0-4.9,4.893-6.855,14.686c-1.959,9.793-6.364,2.443-9.794,4.401c-3.425,1.959-19.583,13.712-19.091,18.12
		c0.488,4.401,12.24,21.046,19.091,29.365c6.856,8.326,29.372,37.698,36.716,38.19c7.343,0.483,8.813-11.752,5.876-14.203
		c-2.938-2.442-3.917-19.579-3.917-28.389c0-8.818,3.917-21.054,4.405-24.472c0.491-3.434-1.954-4.9-2.446-6.859
		c-0.488-1.959,1.467-8.319,2.937-12.236c1.468-3.917,0.488-6.851-0.979-10.285c-1.467-3.425,17.62-53.852,20.562-61.186
		c2.934-7.344,19.579-21.538,23.984-28.398c4.405-6.852,8.326-23.988,6.364-34.757c16.153-45.525,15.665-87.134,16.645-88.609
		c0.979-1.458,13.706-7.334,21.541-10.769c7.832-3.417,29.86-12.236,46.505-15.653c16.641-3.434,40.629-19.587,39.654-35.74
		c-0.98-16.153-17.624-20.562-23.988-22.037c-6.363-1.467-13.707-3.91-30.839-16.637c-17.137-12.728-42.104-12.236-45.53-15.177
		c-3.425-2.935-4.405-1.468-2.938-5.385c1.468-3.917-1.467-14.194-3.425-17.619c-1.958-3.435-0.492-14.686-0.979-25.947
		c-0.492-11.261-1.226-50.668,0.733-61.928c1.959-11.261-5.138-21.054-12.974-24.722c6.122,0,50.181-3.426,57.524-5.376
		c7.343-1.967,17.865-5.885,29.372-11.752c11.502-5.877,39.162-25.455,42.341-28.152c3.184-2.695,2.942-2.204,10.035-2.937
		c7.097-0.734,11.26-7.348,13.46-10.036c2.204-2.692,7.835-0.733,11.015-1.225C373.054,177.009,373.054,174.317,371.586,173.825z
		 M70.404,249.819c0.257-0.362,0.527-0.701,0.773-1.088c-0.036,0.274-0.109,0.556-0.157,0.831
		C70.819,249.641,70.614,249.738,70.404,249.819z M75.546,247.014c0.068-0.291,0.137-0.581,0.197-0.903
		c0.246-1.209,0.588-2.757,1.016-4.521c1.073,0.144,2.079,0.281,3.014,0.427C78.637,244.144,77.211,245.756,75.546,247.014z
		 M103.81,204.664c-1.116,0.645-7.206,0.306-13.09-0.161c0.068-0.403,0.129-0.79,0.181-1.161c0.395-0.419,0.782-0.742,1.161-0.952
		c0.931-0.523,1.689-1.184,2.314-1.918c0.73,0.774,1.668,1.257,2.909,1.257c2.193,0,4.224-0.749,5.607-1.741
		C104.684,201.053,106.861,202.932,103.81,204.664z"></path>
	<path class="st0" d="M354.45,32.355c0,16.762-13.586,30.348-30.348,30.348S293.75,49.117,293.75,32.355
		C293.75,15.59,307.34,2,324.102,2S354.45,15.59,354.45,32.355z"></path>
</g>
</svg>
