<!--?xml version="1.0" encoding="utf-8"?-->
<!-- Generator: Adobe Illustrator 22.1.0, SVG Export Plug-In . SVG Version: 6.00 Build 0)  -->
<svg version="1.1" id="_x33_" xmlns="http://www.w3.org/2000/svg" xmlns:xlink="http://www.w3.org/1999/xlink" x="0px" y="0px" viewBox="0 0 400.133 800" style="enable-background:new 0 0 400.133 800;" xml:space="preserve">
<style type="text/css">
	.st0{fill:#040000;}
</style>
<g>
	<path class="st0" d="M194.015,35.911c0,18.724-15.177,33.901-33.901,33.901c-18.724,0-33.905-15.177-33.905-33.901
		C126.209,17.181,141.39,2,160.114,2C178.839,2,194.015,17.181,194.015,35.911z"></path>
	<path class="st0" d="M398.943,726.715c-1.945-4.871-27.283-23.383-34.108-22.411c-6.826,0.972-24.699-20.143-31.515-34.766
		c-6.825-14.614-24.636-35.045-36.327-38.934c0,0-5.583-11.418-8.509-14.344c-2.922-2.917-2.215-9.048-5.137-15.873
		c-2.927-6.817-6.821-62.373-13.646-70.171c0,0-1.949-14.622,0.973-20.467c2.922-5.844,11.313-33.514,8.716-39.033
		c1.954-0.973,3.579,0,2.597-2.269c-0.973-2.278-1.621-6.51-3.246-8.122c-1.625-1.629-3.57-21.772-5.195-24.041
		c-1.626-2.279-3.255-16.892-4.548-18.198c-1.305-1.297-6.505-17.55-6.825-21.115c-0.324-3.575,3.25-3.25,2.598-4.871
		c-0.653-1.629-2.278-2.602-2.278-4.548c0-1.953,1.625-5.529,2.93-6.825c1.297-1.296,5.52-16.243,9.095-20.466
		c3.574-4.232,9.747-6.501,8.774-8.446c-0.977-1.954-0.324-5.205-0.324-5.205s-0.982-1.953,4.546-6.825
		c5.521-4.862,10.72-9.418,12.669-9.418c1.95,0,15.592,4.871,18.189,5.529c2.602,0.648,13.651-5.204,15.6-12.345
		c5.196,1.297,20.143-5.204,24.036-5.529c3.899-0.324,11.697-1.944,16.244-6.815c4.547-4.872,3.899-11.697,1.945-15.272
		c-1.945-3.575-8.113-21.439-10.391-25.671c-2.273-4.223-9.742-15.261-17.54-26.968c-7.802-11.687-14.295-25.986-13.646-30.208
		c0.648-4.223,6.496-17.869,5.844-25.014c3.898-8.446,5.524-15.595,6.825-18.193c1.297-2.602-1.301-7.798-3.57-3.575
		c-2.277,4.228-7.802,17.545-8.774,17.545c-0.973,0-2.922,3.25-1.625-2.603c1.301-5.843,4.871-19.814,5.519-22.74
		c0.653-2.922-3.57-9.418-5.844-2.273c-2.273,7.149-5.529,23.717-6.5,21.443c-0.973-2.273,1.305-19.17,1.624-22.74
		c0.33-3.575,0-10.4-3.25-8.774c-3.247,1.624-3.566,8.121-3.895,11.696c-0.324,3.575-2.602,14.294-2.602,14.294
		s-0.643-7.149-0.643-9.423c0-2.273,3.575-11.696,0.323-12.992c-3.255-1.301-4.871-1.621-5.199,4.223
		c-0.325,5.849-2.369,13.226-2.922,16.572c-1.625,9.743-4.227-0.328-6.826,0.324c0,0-7.469-9.423-21.119-7.798
		c-10.39-0.977-19.381,0.756-19.273,7.037c0.018,1.084-13.862,11.48-14.294,13.646c-0.432,2.16-0.653,3.466-0.653,4.331
		c0,0.869-1.945,2.597-1.945,2.597s0.864,0.865,0.217,1.518c-0.648,0.648-6.501,4.768-9.747,5.847
		c-2.477,0.824-4.332,2.166-2.819,4.768c1.517,2.594,1.301,4.98,0.433,5.628c-0.865,0.649-1.513,2.386-1.513,3.683
		c0,1.296,0.432,2.602-0.433,3.034c-0.864,0.432-1.734,1.513-1.517,2.377c0.216,0.865,1.112,2.809-0.87,5.853
		c-2.813,4.331,0.87,5.619,0.87,6.933c0,0,1.733,2.161,0.216,2.809c-1.517,0.648-3.03-0.648-5.631-3.241
		c-2.599-2.603-7.145-3.467-8.658-3.899c-1.521-0.441-5.853-2.602-11.053-2.602c-5.196,0-9.094,1.512-9.959,0.864
		c-0.864-0.648-1.517-1.081-2.386-0.431c-0.864,0.648-4.111-1.729-6.064-1.946c-1.944-0.216-3.25,1.296-4.547,0.648
		c-1.296-0.648-4.336-3.908-4.979-3.908c-0.653,0-1.518,0.865-1.518,0.865s-22.523-8.014-25.774-11.255
		c-3.246-3.251-12.997-13.214-23.821-16.027c-10.832-2.814-38.556-9.964-48.298-16.028c-9.748-6.065-19.062-9.099-20.147-10.612
		c-1.08-1.517-9.743-7.582-17.54-6.712c-7.798,0.864-8.019-1.518-9.531-1.518c-1.518,0-1.297,7.582,1.733,7.361
		c3.034-0.217,3.25,0.436,2.818,1.517c-0.436,1.08-5.848,5.632-7.149,6.712c-1.301,1.085-11.913,8.447-13.647,12.134
		c-4.766,2.165-8.446,6.059-8.446,6.059c-3.898,2.386-5.847,6.069-4.763,7.798c0.432,2.381,0.865,3.25,2.598,2.814
		c1.734-0.433,6.064-3.895,6.928-4.547c0.869-0.648,2.598-1.733,2.598-1.733s5.416-3.463,4.119-1.945
		c-1.301,1.512-4.767,5.412-4.767,7.145c0,1.734-0.433,3.467,1.949,1.517c2.386-1.949,9.099-6.5,12.345-8.662
		c3.25-2.166,17.76-3.034,21.88-4.98c4.111-1.954,5.196-2.169,7.145-1.085c1.949,1.085,34.221,19.711,40.717,23.825
		c6.497,4.114,22.308,10.4,28.589,10.4c6.281,0,18.193,9.094,21.007,11.903c2.814,2.819,26.644,19.486,33.141,22.312
		c-0.217,3.457-1.95,10.607-0.217,11.687c1.734,1.09,14.511,2.17,17.109,3.035c2.602,0.873,6.712,2.386,6.28,4.34
		c-0.431,1.944-11.912,21.439-14.943,30.318c-3.03,8.878,1.085,18.414,2.598,27.291c1.517,8.878-4.115,35.522-5.196,40.286
		c-1.085,4.763-4.547,10.823-3.034,14.299c1.517,3.458,3.034,18.188,1.513,27.283c-1.513,9.103-6.061,13.857-5.413,17.54
		c0.653,3.683,2.603,7.15,1.955,8.23c-0.653,1.089-3.472,3.25-2.819,4.773c0.644,1.512,6.497,11.696,6.497,11.696
		s-3.467,6.708-4.768,8.436c-1.296,1.738-7.793,7.799-7.577,8.888c0.217,1.08-28.705,64.912-34.558,94.149
		c-3.89,4.871-11.688,5.843-14.615,15.595c-2.922,9.743,1.945,32.154,7.798,40.933c5.848,8.77,1.949,36.061,8.77,61.391
		c6.821,25.347,13.646,41.906,10.72,51.658c-2.922,9.743-3.899,13.65-12.673,21.439c-8.766,7.798-18.513,15.595-25.334,16.567
		c-6.825,0.982-17.544,10.724-4.871,17.541c12.669,6.824,28.26,5.852,44.828,0c16.568-5.844,38.007-5.844,40.934-8.771
		c2.926-2.917,5.847-33.127-2.927-40.925c-4.606-4.096-4.871-7.798-4.871-7.798s-2.922-37.044-0.973-54.583
		c1.949-17.54,4.665-56.781-3.129-67.505c-7.802-10.715-5.852-16.568-1.949-19.485c3.895-2.927,18.517-23.069,29.237-43.536
		c0,0,20.846,67.289,32.546,74.114c0,10.715,2.922,27.292,10.72,35.081c7.793,7.798,47.381,26.932,57.123,35.702
		c9.752,8.77,34.117,29.237,36.062,37.034c1.95,7.798-2.922,28.255-8.77,37.035c-5.853,8.77-18.522,12.669-25.338,14.614
		c-6.825,1.954,6.816,19.493,37.03,11.696c14.619,0,26.315-20.457,33.141-27.283C387.256,761.805,400.897,731.596,398.943,726.715z
		 M301.197,254.947c-0.356-0.36-0.734-0.747-1.121-1.134c-0.679-1.891-0.981-3.493-0.949-4.98c0.594,1.999,1.279,3.763,1.972,5.304
		C301.126,254.407,301.166,254.677,301.197,254.947z M301.656,255.308c0.05,0.098,0.095,0.189,0.139,0.288
		c-0.049-0.063-0.103-0.117-0.153-0.171C301.647,255.38,301.656,255.344,301.656,255.308z M298.069,251.967
		c-0.779-0.685-1.576-1.334-2.342-1.918c0.379-0.882,0.734-1.81,1.058-2.774C296.799,249.139,297.371,250.725,298.069,251.967z
		 M300.631,250.004c0.108,0.153,0.215,0.306,0.319,0.459c0,0.324-0.004,0.665,0,0.999
		C300.837,250.968,300.724,250.49,300.631,250.004z M294.683,249.302c-0.266-0.18-0.523-0.351-0.784-0.495
		c0.442-1.098,0.833-2.251,1.188-3.431C294.944,246.826,294.809,248.158,294.683,249.302z M314.641,223.649
		c2.809,3.898,10.287,22.798,12.021,25.824c1.729,3.034,5.794,14.838,7.091,20.907c1.301,6.061,5.636,17.757,5.636,17.757
		s-4.552,0-5.205-0.432c-0.644-0.432-1.508,0.432-3.678-2.385c-2.165-2.819-21.66-8.663-22.528-9.311
		c-0.865-0.648-1.95-0.648-2.814-2.386c-0.433-0.864-1.296-0.432-2.161-0.864c-0.869-0.433-4.988-3.684-4.547-4.773
		c0.379-0.963,4.921-6.258,5.561-8.608c0.846,1.242,1.427,1.891,1.427,1.891c-0.499-0.712-0.946-1.432-1.364-2.144
		c0.027-0.171,0.031-0.324,0-0.45c-0.09-0.387-0.545-1.054-1.225-1.882c-0.404-0.864-0.761-1.729-1.072-2.584
		c0.046-0.333,0.099-0.702,0.149-1.081c2.314,5.872,5.137,9.005,5.137,9.005c-2.193-3.125-3.583-6.321-4.398-9.455
		c1.121,1.36,1.863,2.107,1.863,2.107c-0.756-0.919-1.427-1.837-2.021-2.755c-0.09-0.378-0.18-0.756-0.253-1.126
		c0.122-0.783,0.27-1.629,0.432-2.53c3.147,6.429,6.807,9.653,6.807,9.653c-3.35-3.755-5.321-7.798-6.397-11.76
		c0.153-0.774,0.328-1.585,0.513-2.413c1.968,5.249,4.187,8.518,4.187,8.518c-2.264-4.177-3.214-8.194-3.367-11.885
		c0.301-1.153,0.629-2.323,0.994-3.521c0.932-1.197,1.959-2.494,3.084-3.943c3.102-4.043,4.25-8.113,4.429-11.697
		C313.394,221.937,313.935,222.676,314.641,223.649z M292.823,245.907c-0.072,0.775-0.149,1.513-0.225,2.197
		c-0.072-0.036-0.144-0.063-0.212-0.089C291.766,247.762,292.072,247.006,292.823,245.907z"></path>
</g>
</svg>
