<!--?xml version="1.0" encoding="utf-8"?-->
<!-- Generator: Adobe Illustrator 22.1.0, SVG Export Plug-In . SVG Version: 6.00 Build 0)  -->
<svg version="1.1" id="_x31__1_" xmlns="http://www.w3.org/2000/svg" xmlns:xlink="http://www.w3.org/1999/xlink" x="0px" y="0px" viewBox="0 0 800 322.255" style="enable-background:new 0 0 800 322.255;" xml:space="preserve">
<style type="text/css">
	.st0{fill:#040000;}
</style>
<g>
	<path class="st0" d="M773.99,268.165c0.192-7.717-5.587-4.928-8.513-11.173c3.026-10.113-8.457-7.626-15.278-6.556
		c-6.821,1.061-17.089,4.206-29.79,6.044c-12.71,1.847-57.027-16.239-71.813-17.839c-14.776-1.609-26.27,0.887-34.38,4.389
		c-8.12,3.502-34.645-9.811-43.258-11.265c-5.065-0.85-7.104-3.347-11.803-6.363c3.035,0.603,1.335-5.486,7.671-3.291
		c9.006,3.118,10.25-5.368,10.314-9.674c0.054-3.64,1.911-6.264,2.624-9.116c0,0,1.463-0.247,3.42-1.216
		c1.948-0.978,5.852-1.226-0.494-11.96c-4.663-7.89-0.237-11.959,1.226-15.864c0.338-0.915,0.704-4.06,0.585-8.321
		c4.617-8.101-0.796-14.822-3.236-19.091c-0.238-0.366,0,0,0,0s-14.759-23.664-44.045-17.327c-1.097,0.082,1.042-0.137,0,0
		c-13.825,0.311-21.962,6.839-28.052,24.888c-2.02,2.889-4.965,5.916-8.914,7.324c-6.867,0.138-16.459-2.907-22.247-7.479
		c-9.28-7.324-12.206-23.426-8.787-30.749c3.419-7.324,9.765-11.713,9.765-11.713s-13.669,3.904-14.648,16.102
		c-0.741,9.326,0.531,26.05,19.009,34.078c-3.465-0.092-7.186-0.055-10.871,0.284c-1.993-0.622-3.904-1.345-5.696-2.149
		c1.106,0.914,2.203,1.7,3.31,2.432c-0.348,0.046-0.704,0.092-1.043,0.147c-1.691-1.436-3.392-3.018-5.074-4.828
		c0.421,1.61,1.417,3.402,2.871,5.222c-1.975,0.402-3.895,0.933-5.724,1.618c-0.22-0.064-0.448-0.119-0.677-0.192
		c0.182,0.082,0.384,0.146,0.585,0.228c-0.64,0.247-1.27,0.512-1.884,0.796c-0.164-0.109-0.338-0.22-0.512-0.33
		c0-0.009-0.018-0.018-0.018-0.027c0,0.009,0,0.009,0,0.018c-2.624-1.654-5.276-3.63-7.937-6.052
		c0.832,2.395,3.017,5.102,6.199,7.608c-4.058,2.45-7.204,6.08-8.64,11.42c3.301-4.316,4.371-7.709,10.67-9.967
		c0.558,0.376,1.134,0.741,1.737,1.098c1.188,1.682,2.798,3.42,4.791,5.084c-4.535,1.773-9.162,3.977-13.788,6.721
		c2.441-0.815,7.717-3.146,15.726-5.213c2.048,1.491,4.407,2.872,7.022,4.06c-0.091,0.065-0.2,0.109-0.292,0.174
		c0.109-0.036,0.255-0.092,0.366-0.138c1.28,0.585,2.624,1.107,4.022,1.583c-7.771-0.266-16.193,0.328-23.004,2.953
		c-17.583,6.794-50.417,11.192-57.677,17.007c-5.696,4.553-13.35,0.594-14.52,3.63c-1.171,3.026-16.02,7.744-19.842,5.925
		c-3.821-1.819-14.666-0.786-14.666-0.786s-13.404-11.676-16.312-13.13c-2.907-1.454-5.083,2.176-5.083,2.176
		s-20.894-17.555-51.918-11.218c-29.697-8.503-72.873-17.666-72.233-22.155c0.969-6.83,8.778-15.618,12.691-33.191
		c6.437-28.976,2.926-55.51,2.926-70.276c0-21.479,5.852-21.479,5.852-21.479s8.786-32.212-5.852-39.042
		c-9.527-4.444-30.266,4.883-43.925,5.861c-13.67,0.969-42.371,7.763-41.969,16.595c0.97,21.47,12.682,14.639,40.991,16.587
		c17.638,1.216,14.565,9.591,13.669,18.553c-3.913,39.042-33.191,91.754-33.191,116.148c0,8.459,11.357,17.392,26.535,28.016
		c-18.708,3.731-28.033,5.87-32.176,4.316c-5.806-2.177-4.361-39.93-29.04-66.062c-18.716-19.823-26.863-32.678-30.493-43.568
		c-3.63-10.89-3.63-10.89-3.63-10.89s1.454-6.528,0-10.159c-1.454-3.63-5.084-15.251-7.259-15.973
		c-2.186-0.731-17.428-15.974-37.022,11.612c-19.604,27.586-34.856,32.67-38.486,42.837c-3.63,10.168,4.363,18.15,22.503,13.066
		c18.158-5.074,33.4-12.343,38.484-11.612c5.075,0.722,5.806,8.714,10.159,21.781c3.254,9.737,13.797,55.903,34.123,84.22
		c0,0,12.344,26.132,31.216,23.233c17.427,11.613,86.406,19.595,108.907,15.242c5.806,2.176,60.265,21.058,85.675,12.344
		c12.344,0.722,13.066-1.454,12.344,0.722c-0.723,2.186-0.732,15.974,2.176,16.705c2.899,0.723,18.881-7.991,23.233-9.445
		c4.353-1.444,7.26,2.908,12.344,0.732c5.084-2.176,18.872-4.361,23.956-2.909c2.661,0.759,9.098,0.723,15.361,0.522
		c-7.224,8.979-11.347,17.208-8.174,22.2c10.286,16.157,105.378,15.791,121.526,14.319c16.156-1.472,19.649,2.487,22.758,2.935
		c3.11,0.438,16.184,1.8,19.833,1.471c8.074-0.731,26.214-3.364,30.658-2.03c4.444,1.335,9.774-3.108,1.335-4.444
		c-8.44-1.335-14.219-0.886-12.883-3.547c1.335-2.67,16.888,0.887,21.771,0c4.892-0.896,5.779-4.444-3.108-5.331
		c-8.888-0.896-14.658,0-16.879-1.334c-2.222-1.335,5.769-3.11,10.214-3.997c4.444-0.886,8.887-0.448,11.109-0.886
		c2.222-0.448,3.557-4.892-4.892-4.892c-8.44,0-17.318,4.444-18.653,2.67c-1.069-1.427,10.516-5.514,13.332-5.331
		c7.096,0.439,8.43-0.895,8.43-0.895s0.448-5.331-11.996-3.548c-10.021,1.435-15.096,1.774-18.653,3.11
		c-0.722,0.275-2.176,0.494-4.105,0.712c0.183-0.365,0.439-0.712,0.905-1.051c2.277-1.627,0,0,3.255-2.606
		c3.255-2.596,0-6.51-1.298-4.874c-1.308,1.627-6.84,6.172-9.116,6.83c-1.189,0.338-3.785,1.545-6.19,2.871
		c-2.295,0.22-4.663,0.475-6.994,0.777c-10.47,1.362-18.214,0.585-22.219,2.095c-5.879,2.203-24.998-4.453-44.309-6.721
		c-8.412-0.988-14.319-2.651-18.305-4.773c12.618-4.215,24.422-11.109,34.014-22.401c1.079-1.271,2.085-2.587,3.045-3.922
		c21.569,9.472,56.763,11.529,63.986,12.444c10.625,1.345,29.177,0.255,41.182,7.818c12.006,7.552,59.744,0.1,70.405-0.101
		c10.652-0.192,27.705-2.862,34.334,3.785c6.619,6.657,21.038,10.405,24.413,11.42c3.374,1.007,6.391-2.468,8.156-5.047
		c3.693,0.403,5.276-1.106,5.211-4.654c5.815-4.334,4.206-7.928,4.206-7.928S773.697,273.871,773.99,268.165z M501.432,184.53
		c0,0-1.417-0.338-3.804-0.786c0.202-0.064,0.411-0.147,0.622-0.219c0.311-0.046,0.622-0.082,0.942-0.128
		c1.965,0.009,3.968-0.109,6.025-0.375c-0.411,0.503-0.831,1.025-1.27,1.545C503.032,184.502,502.172,184.466,501.432,184.53z
		 M467.82,167.103c1.372,0.366,2.77,0.668,4.178,0.923c1.299,0.997,2.743,1.957,4.298,2.853c-0.531,0.137-1.061,0.274-1.6,0.421
		c-0.851-0.119-1.711-0.275-2.578-0.457C470.683,169.717,469.247,168.484,467.82,167.103z M467.464,166.307
		c0.685-0.091,1.408-0.173,2.149-0.265c0.302,0.275,0.613,0.539,0.923,0.804C469.53,166.7,468.506,166.518,467.464,166.307z
		 M495.735,179.675c1.984-0.641,4.225-1.29,6.739-1.93c-0.201,0.219-0.412,0.43-0.622,0.64c-1.866,0.549-3.813,0.987-5.834,1.307
		C495.927,179.683,495.827,179.683,495.735,179.675z M507.32,167.688c0.868-0.549,1.737-1.124,2.615-1.746
		c-0.246,0.576-0.521,1.188-0.823,1.819c-0.045,0.01-0.1,0.019-0.146,0.027C508.445,167.751,507.896,167.715,507.32,167.688z
		 M497.4,167.669c-0.092,0-0.174,0-0.266,0.009c0.147-0.027,0.293-0.054,0.439-0.092C497.519,167.615,497.454,167.642,497.4,167.669
		z M484.854,169.031c-1.426,0.238-2.88,0.521-4.361,0.842c-0.758-0.32-1.527-0.658-2.294-1.042
		C480.42,169.014,482.642,169.069,484.854,169.031z M483.867,175.103c-0.895,0.403-1.792,0.823-2.688,1.253
		c-0.951-0.43-1.902-0.905-2.862-1.418C480.119,175.103,481.965,175.167,483.867,175.103z M487.964,175.423
		c3.63,0.841,7.552,1.271,11.675,1.106c-2.232,0.888-4.471,1.875-6.729,2.981c-3.319-0.33-6.748-1.097-10.223-2.487
		C484.269,176.502,486.007,175.963,487.964,175.423z M508.162,184.265c-0.138,0.201-0.284,0.403-0.421,0.604
		c-0.065-0.009-0.129-0.009-0.202-0.009C507.749,184.658,507.96,184.466,508.162,184.265z M583.422,156.121
		c0.037-0.137-4.517,5.093-4.489,4.956c0.036,0.403,4.617-4.562,4.635-4.16C583.512,156.652,583.467,156.386,583.422,156.121z
		 M475.666,165.521c2.496,1.024,4.983,1.628,7.406,1.93c-2.387,0.137-4.892,0.128-7.508-0.046c-0.859-0.513-1.737-1.079-2.596-1.683
		C473.828,165.648,474.724,165.585,475.666,165.521z M465.946,166.535c0.073,0.028,0.146,0.046,0.219,0.064
		c0.495,1.024,1.162,2.084,2.013,3.164c-1.976-0.65-3.97-1.473-5.981-2.506C463.312,166.993,464.565,166.756,465.946,166.535z
		 M466.221,172.031c0.913,0.365,1.874,0.704,2.852,1.024c-0.311,0.101-0.622,0.228-0.932,0.339
		C467.5,172.964,466.861,172.506,466.221,172.031z M470.865,175.084c0.731-0.164,1.472-0.328,2.249-0.484
		c1.5,1.161,3.164,2.277,5.002,3.301c-0.156,0.082-0.32,0.165-0.476,0.247C475.4,177.38,473.133,176.374,470.865,175.084z
		 M478.92,178.34c0.33,0.182,0.667,0.348,1.006,0.521c-0.448-0.128-0.905-0.238-1.362-0.385
		C478.692,178.432,478.793,178.386,478.92,178.34z M510.447,184.741c0.878-0.311,1.701-0.677,2.46-1.08
		C512.249,184.246,511.398,184.576,510.447,184.741z" style="fill: rgb(207, 216, 255);"></path>
	<path class="st0" d="M798,191.726c0,23.444-19.009,42.453-42.462,42.453c-23.443,0-42.453-19.009-42.453-42.453
		c0-23.453,19.01-42.463,42.453-42.463C778.991,149.264,798,168.273,798,191.726z" style="fill: rgb(207, 216, 255);"></path>
</g>
</svg>
