<!--?xml version="1.0" encoding="utf-8"?-->
<!-- Generator: Adobe Illustrator 22.1.0, SVG Export Plug-In . SVG Version: 6.00 Build 0)  -->
<svg version="1.1" id="_x30_" xmlns="http://www.w3.org/2000/svg" xmlns:xlink="http://www.w3.org/1999/xlink" x="0px" y="0px" viewBox="0 0 800 736.827" style="enable-background:new 0 0 800 736.827;" xml:space="preserve">
<style type="text/css">
	.st0{fill:#040000;}
</style>
<g>
	<path class="st0" d="M681.376,460.659c3.475-2.803-2.787-10.442-5.573-13.918c-2.787-3.492-3.477-14.623-2.067-22.278
		c1.378-7.656-4.196-16-11.835-22.934c-7.656-6.952-11.836-20.165-18.1-28.525c-6.261-8.345-73.443-84.133-97.082-104.329
		c-23.64-20.165-38.951-25.721-45.213-32.672c-6.263-6.967-26.428-27.131-35.476-40.344c-9.05-13.23-27.836-55.656-42.427-62.607
		c0,0,0.69-4.18,0-6.261c-0.689-2.099,1.378-9.05,1.378-11.132c4.885-2.082,9.048-2.787,5.573-6.263
		c-3.475-3.475-6.262-13.918-7.64-16.687c-1.41-2.804,1.378-5.573,1.378-5.573v-6.263c0.689-2.787,1.394-15.278,0.689-20.165
		c-0.689-4.885-2.787-25.033-20.853-34.786c0,0-4.87-15.296-22.951-18.754c0,0-63.756-26.377-84.231,38.294
		c-2.098,0.411-11,2.803-13.443,13.838c0,0-24.637-5.459-30.458,36.574c-7.344,4.819-12.689,7.95-12.689,7.95
		c3.968,0,7.87-0.704,11.672-1.902c-0.36,1.737-0.754,3.361-1.212,4.87c-6.034,2.917-11.541,5.065-15.28,6.409
		c-9.738-4.444-17.41-13.557-17.41-13.557s5.181,8.491,13.048,15.016c-0.359,0.131-0.557,0.165-0.557,0.165
		c0.23,0,0.46-0.033,0.705-0.033c1.296,1.066,2.673,2.082,4.116,3c-4.608,1.754-9.541,3.804-14.688,6.147
		c-6.198-1.885-11.444-5.294-13.772-7.589c2.198,3.77,6.132,6.819,10.918,8.934c-30.72,14.476-68.425,39.69-92,81.492
		c0,0-16.707,6.968-19.476,16.69c-2.787,9.736-15.312,16.705-19.491,23.654c-4.165,6.968-6.952,19.493-20.853,32.001
		c-13.919,12.525-36.181,22.263-44.541,55.639c-8.328,33.394-5.541,87.656,36.196,104.346
		c41.738,16.705,55.641,13.918,55.641,13.918s-14.262,26.574-32.001,73.721C56.192,593.71,34.619,627.431,30.455,630.201
		c-4.18,2.788-20.868,12.524-26.427,32.018c-5.573,19.475,1.376,31.983,8.345,40.327c6.935,8.361,13.901,36.181,57.032,32.016
		c43.116-4.18,25.05-13.933,18.083-37.59c-6.952-23.639-6.952-45.885-5.558-54.247c1.378-8.343,55.28-79.966,65.018-89.721
		c9.753-9.738,98.59-87.475,95.803-127.804c2.787-6.966,41.737,1.394,65.377-6.966c23.656-8.345,75.132-13.918,70.951-2.787
		c-4.164,11.147-6.951,45.917-15.294,77.918c-5.723,21.917-26.443,30.589-20.87,48.689c5.573,18.098,27.819,13.902,47.313,16.688
		c19.458,2.787,55.541,20.082,73.705,6.967c25.049-18.098,6.983-32-15.28-37.573c-22.261-5.558-43.312-9.214-37.574-26.427
		c6.952-20.869,12.525-23.64,26.428-51.459c7.868-15.755,66.787-90.443,6.967-109.918c-59.821-19.476-144.674-33.394-194.771-33.394
		c0,0,13.918-16.688,22.261-16.688c8.361,0,27.821,2.787,55.64-23.639c0,0,84.87,40.327,107.131,43.114
		c22.246,2.787,25.033,12.542,33.394,25.033c8.328,12.542,62.984,35.459,82.476,43.82c19.475,8.345,54.245,24.344,57.032,34.066
		c2.787,9.738,6.952,33.392,12.525,37.574c5.575,4.18-1.394-4.182,5.575,4.18c6.95,8.345,12.508,8.345,16.688,12.508
		c4.163,4.165,5.556,2.77,13.902,6.967c8.361,4.164,25.049,8.345,25.049,0c0-8.36-6.262-2.802-9.05-4.197
		c-2.787-1.376,0-7.638,0-7.638S677.901,463.431,681.376,460.659z M271.832,107.904c-0.606,0.015-1.18,0.049-1.703,0.066
		c3.506-4.739,6.426-10.131,8.82-15.444c0.754-0.884,1.508-1.803,2.196-2.687C279.652,96.707,276.243,102.707,271.832,107.904z
		 M275.668,78.314c-0.148,0.458-0.294,0.901-0.426,1.36c-1.95,1.607-3.95,3.181-5.966,4.722
		C271.144,81.052,273.308,79.215,275.668,78.314z M265.406,95.625c1.771-1.114,3.492-2.312,5.149-3.524
		c-0.657,1.408-1.362,2.818-2.166,4.229c-1.18,0.885-2.392,1.754-3.606,2.558C264.98,97.757,265.176,96.657,265.406,95.625z
		 M238.096,114.199c3.836-0.492,7.442-1.231,10.786-2.229c-0.196,0.441-0.376,0.851-0.59,1.26c-1.902,0.608-3.952,1.296-6.065,2.05
		C240.817,115.05,239.438,114.691,238.096,114.199z M279.882,107.297c5.001-9.508,6.935-19.753,7.64-27.655
		c0.213-0.394,0.409-0.804,0.606-1.213c0.787,0.114,1.541,0.247,2.328,0.344c0.623,0.361,1.246,0.606,1.869,0.819
		c-0.589,9.641-1.246,19.886-1.573,23.542C290.177,109.395,284.013,107.756,279.882,107.297z M427.08,245.036
		c-11.82-6.952-41.034-19.475-49.377-24.345c-8.361-4.885-5.575-4.163-9.05-9.048c-3.475-4.87,15.295-20.87,16-22.951
		c0.689-2.098,2.082,3.475,4.165,5.557c0,0,41.049,48.705,47.999,54.279c6.952,5.559,15.313,14.591,15.313,14.591
		S438.9,252.002,427.08,245.036z"></path>
	<path class="st0" d="M798,269.741c0,42.36-34.328,76.688-76.689,76.688c-42.36,0-76.688-34.328-76.688-76.688
		c0-42.345,34.328-76.673,76.688-76.673C763.672,193.068,798,227.396,798,269.741z"></path>
</g>
</svg>
