<?xml version="1.0" standalone="no"?>
<!DOCTYPE svg PUBLIC "-//W3C//DTD SVG 20010904//EN"
 "http://www.w3.org/TR/2001/REC-SVG-20010904/DTD/svg10.dtd">
<svg version="1.0" xmlns="http://www.w3.org/2000/svg"
 width="1280.000000pt" height="1120.000000pt" viewBox="0 0 1280.000000 1120.000000"
 preserveAspectRatio="xMidYMid meet">
<g transform="translate(0.000000,1120.000000) scale(0.100000,-0.100000)"
fill="#000000" stroke="none">
<path d="M3910 11176 c-350 -81 -560 -236 -700 -515 -93 -187 -118 -422 -65
-605 49 -170 160 -349 276 -447 287 -243 661 -307 1015 -174 330 124 574 461
591 815 6 138 -23 259 -102 416 -85 170 -185 280 -345 378 -100 62 -200 99
-350 130 -148 31 -194 31 -320 2z"/>
<path d="M8630 10569 c-281 -47 -537 -253 -648 -522 -85 -204 -83 -471 5 -671
111 -254 344 -445 611 -502 109 -23 282 -18 395 10 169 43 347 154 447 280
130 163 188 313 197 517 14 303 -120 574 -372 748 -178 124 -416 176 -635 140z
m282 -240 c71 -15 202 -79 261 -128 103 -86 179 -205 212 -332 13 -48 16 -92
13 -179 -4 -98 -9 -126 -35 -192 -81 -206 -254 -350 -472 -394 -311 -62 -632
142 -717 456 -27 101 -23 244 10 347 64 199 226 354 431 414 70 20 218 24 297
8z"/>
<path d="M8040 10445 c-47 -8 -157 -29 -245 -49 -88 -19 -232 -49 -320 -66
-584 -115 -1116 -277 -2260 -688 -690 -248 -904 -337 -1278 -533 -239 -126
-313 -174 -400 -258 l-69 -66 -1731 -5 -1732 -5 -3 -117 -3 -118 1678 0 c923
0 1684 -4 1691 -9 7 -4 19 -38 27 -75 25 -119 87 -205 187 -258 38 -20 56 -23
163 -22 109 0 129 3 215 33 52 17 195 84 318 148 249 128 355 169 475 182 81
8 164 5 171 -8 2 -3 -4 -37 -15 -76 -10 -38 -18 -87 -18 -108 -2 -91 88 -260
207 -387 148 -160 290 -245 612 -365 708 -265 1139 -370 1667 -406 309 -21
863 -4 1353 41 58 6 186 17 285 26 99 8 189 19 200 23 59 23 -118 65 -530 125
-275 40 -813 145 -1080 211 -345 85 -592 168 -840 282 -77 36 -179 83 -226
104 -47 21 -133 64 -190 95 -161 88 -625 408 -621 429 1 7 1178 9 3515 6 1932
-2 3523 -1 3535 3 21 7 22 12 22 127 l0 119 -3910 0 c-3311 0 -3910 2 -3910
14 0 20 233 203 410 321 312 208 625 372 1305 680 215 98 579 264 810 370 231
106 447 201 480 210 75 21 175 65 175 76 0 11 -14 10 -120 -6z"/>
<path d="M3565 5886 c-112 -48 -188 -123 -216 -214 -18 -60 -23 -234 -9 -353
10 -93 10 -113 -2 -120 -7 -5 -761 -9 -1676 -9 l-1663 0 3 -117 3 -118 1713
-3 1713 -2 26 -58 c143 -322 209 -444 551 -1012 301 -499 468 -811 559 -1045
63 -162 242 -742 371 -1205 123 -440 255 -964 348 -1382 20 -89 40 -167 45
-173 12 -12 12 227 -1 474 -6 108 -15 288 -21 401 -17 349 -29 450 -114 997
-25 159 -70 450 -100 648 -106 692 -129 798 -345 1555 -136 478 -217 796 -206
807 14 14 90 -82 145 -183 149 -273 299 -479 655 -899 281 -330 321 -380 470
-574 270 -352 400 -573 646 -1101 40 -85 130 -274 200 -420 142 -295 192 -410
438 -1010 158 -385 216 -541 242 -647 8 -33 16 -43 30 -43 13 0 20 7 20 19 0
51 -173 858 -265 1236 -51 210 -200 682 -517 1645 -129 391 -180 514 -657
1574 -94 209 -171 383 -171 388 0 4 1578 9 3508 10 l3507 3 3 118 c2 90 0 117
-10 117 -7 0 -1619 1 -3582 3 l-3568 3 -66 70 c-293 310 -404 409 -518 460
-52 23 -212 61 -275 65 -28 2 -53 -8 -112 -45 -166 -103 -198 -189 -177 -481
4 -62 3 -70 -14 -73 -28 -6 -90 61 -156 169 -87 141 -167 244 -256 330 -94 90
-150 129 -251 176 -103 47 -168 52 -248 19z"/>
</g>
</svg>
